# xmcd
#
# Track frame offsets: 
#        150
#        18920
#        34424
#        47547
#        66906
#        81086
#        94510
#        115495
#        131416
#        141530
#        152307
#
# Disc length: 2166 seconds
#
# Revision: 1
# Processed by: cddbd v1.5.2PL0 Copyright (c) Steve Scherf et al.
# Submitted via: ExactAudioCopy v1.0b3
#
DISCID=8c08740b
DTITLE=Ruthie And The Wranglers - Life's Savings
DYEAR=1998
DGENRE=Country
TTITLE0=What Mama Don't Know
TTITLE1=He's A Honky Tonk Man
TTITLE2=A Dime At A Time
TTITLE3=Thinkin' And Drinkin'
TTITLE4=Don't Bug Me Baby
TTITLE5=The Farewell Polka
TTITLE6=Forgive And Forget
TTITLE7=One More Lie
TTITLE8=I'm Satisfied
TTITLE9=Fist City
TTITLE10=If It's The Last Thing I Do
EXTD=
EXTT0=
EXTT1=
EXTT2=
EXTT3=
EXTT4=
EXTT5=
EXTT6=
EXTT7=
EXTT8=
EXTT9=
EXTT10=
PLAYORDER=
